<svg id="visual" viewBox="0 0 960 540" width="960" height="540" xmlns="http://www.w3.org/2000/svg" xmlns:xlink="http://www.w3.org/1999/xlink" version="1.1"><rect x="0" y="0" width="960" height="540" fill="#001220"></rect><defs><linearGradient id="grad1_0" x1="43.8%" y1="0%" x2="100%" y2="100%"><stop offset="14.444444444444446%" stop-color="#70adde" stop-opacity="1"></stop><stop offset="85.55555555555554%" stop-color="#70adde" stop-opacity="1"></stop></linearGradient></defs><defs><linearGradient id="grad1_1" x1="43.8%" y1="0%" x2="100%" y2="100%"><stop offset="14.444444444444446%" stop-color="#70adde" stop-opacity="1"></stop><stop offset="85.55555555555554%" stop-color="#487499" stop-opacity="1"></stop></linearGradient></defs><defs><linearGradient id="grad1_2" x1="43.8%" y1="0%" x2="100%" y2="100%"><stop offset="14.444444444444446%" stop-color="#234059" stop-opacity="1"></stop><stop offset="85.55555555555554%" stop-color="#487499" stop-opacity="1"></stop></linearGradient></defs><defs><linearGradient id="grad1_3" x1="43.8%" y1="0%" x2="100%" y2="100%"><stop offset="14.444444444444446%" stop-color="#234059" stop-opacity="1"></stop><stop offset="85.55555555555554%" stop-color="#001220" stop-opacity="1"></stop></linearGradient></defs><defs><linearGradient id="grad2_0" x1="0%" y1="0%" x2="56.3%" y2="100%"><stop offset="14.444444444444446%" stop-color="#70adde" stop-opacity="1"></stop><stop offset="85.55555555555554%" stop-color="#70adde" stop-opacity="1"></stop></linearGradient></defs><defs><linearGradient id="grad2_1" x1="0%" y1="0%" x2="56.3%" y2="100%"><stop offset="14.444444444444446%" stop-color="#487499" stop-opacity="1"></stop><stop offset="85.55555555555554%" stop-color="#70adde" stop-opacity="1"></stop></linearGradient></defs><defs><linearGradient id="grad2_2" x1="0%" y1="0%" x2="56.3%" y2="100%"><stop offset="14.444444444444446%" stop-color="#487499" stop-opacity="1"></stop><stop offset="85.55555555555554%" stop-color="#234059" stop-opacity="1"></stop></linearGradient></defs><defs><linearGradient id="grad2_3" x1="0%" y1="0%" x2="56.3%" y2="100%"><stop offset="14.444444444444446%" stop-color="#001220" stop-opacity="1"></stop><stop offset="85.55555555555554%" stop-color="#234059" stop-opacity="1"></stop></linearGradient></defs><g transform="translate(960, 0)"><path d="M0 432C-40.5 431.8 -80.9 431.6 -110.3 411.5C-139.6 391.4 -157.8 351.5 -194 336C-230.2 320.6 -284.2 329.6 -305.5 305.5C-326.7 281.3 -315.1 223.9 -321.3 185.5C-327.5 147.1 -351.4 127.7 -372.8 99.9C-394.3 72.2 -413.1 36.1 -432 0L0 0Z" fill="#12283b"></path><path d="M0 324C-30.3 323.8 -60.7 323.7 -82.7 308.6C-104.7 293.6 -118.4 263.6 -145.5 252C-172.6 240.4 -213.2 247.2 -229.1 229.1C-245 211 -236.3 167.9 -241 139.1C-245.6 110.3 -263.6 95.7 -279.6 74.9C-295.7 54.1 -309.8 27.1 -324 0L0 0Z" fill="#355a78"></path><path d="M0 216C-20.2 215.9 -40.5 215.8 -55.1 205.7C-69.8 195.7 -78.9 175.7 -97 168C-115.1 160.3 -142.1 164.8 -152.7 152.7C-163.4 140.7 -157.6 112 -160.6 92.8C-163.7 73.5 -175.7 63.8 -186.4 50C-197.1 36.1 -206.6 18 -216 0L0 0Z" fill="#5c90bb"></path><path d="M0 108C-10.1 107.9 -20.2 107.9 -27.6 102.9C-34.9 97.9 -39.5 87.9 -48.5 84C-57.5 80.1 -71.1 82.4 -76.4 76.4C-81.7 70.3 -78.8 56 -80.3 46.4C-81.9 36.8 -87.9 31.9 -93.2 25C-98.6 18 -103.3 9 -108 0L0 0Z" fill="#70adde"></path></g><g transform="translate(0, 540)"><path d="M0 -432C40.6 -434.6 81.2 -437.1 111.8 -417.3C142.4 -397.4 162.9 -355.1 190.5 -330C218.1 -304.8 252.9 -296.7 275.8 -275.8C298.7 -254.8 309.8 -221.1 334.3 -193C358.8 -164.9 396.8 -142.5 415.3 -111.3C433.9 -80.1 432.9 -40 432 0L0 0Z" fill="#12283b"></path><path d="M0 -324C30.5 -325.9 60.9 -327.9 83.9 -313C106.8 -298.1 122.2 -266.4 142.9 -247.5C163.6 -228.6 189.6 -222.5 206.8 -206.8C224 -191.1 232.3 -165.8 250.7 -144.8C269.1 -123.7 297.6 -106.9 311.5 -83.5C325.4 -60.1 324.7 -30 324 0L0 0Z" fill="#355a78"></path><path d="M0 -216C20.3 -217.3 40.6 -218.6 55.9 -208.6C71.2 -198.7 81.4 -177.6 95.2 -165C109.1 -152.4 126.4 -148.3 137.9 -137.9C149.3 -127.4 154.9 -110.5 167.1 -96.5C179.4 -82.5 198.4 -71.3 207.7 -55.6C216.9 -40 216.5 -20 216 0L0 0Z" fill="#5c90bb"></path><path d="M0 -108C10.2 -108.6 20.3 -109.3 28 -104.3C35.6 -99.4 40.7 -88.8 47.6 -82.5C54.5 -76.2 63.2 -74.2 68.9 -68.9C74.7 -63.7 77.4 -55.3 83.6 -48.3C89.7 -41.2 99.2 -35.6 103.8 -27.8C108.5 -20 108.2 -10 108 0L0 0Z" fill="#70adde"></path></g></svg>