<svg id="visual" viewBox="0 0 3000 1500" width="3000" height="1500" xmlns="http://www.w3.org/2000/svg" xmlns:xlink="http://www.w3.org/1999/xlink" version="1.1"><rect x="0" y="0" width="3000" height="1500" fill="#1F2937"></rect><path d="M0 868L100 867.7C200 867.3 400 866.7 600 865.5C800 864.3 1000 862.7 1200 888.8C1400 915 1600 969 1800 985.3C2000 1001.7 2200 980.3 2400 989C2600 997.7 2800 1036.3 2900 1055.7L3000 1075L3000 1501L2900 1501C2800 1501 2600 1501 2400 1501C2200 1501 2000 1501 1800 1501C1600 1501 1400 1501 1200 1501C1000 1501 800 1501 600 1501C400 1501 200 1501 100 1501L0 1501Z" fill="#091f41"></path><path d="M0 1047L100 1075C200 1103 400 1159 600 1158.2C800 1157.3 1000 1099.7 1200 1071.8C1400 1044 1600 1046 1800 1086.3C2000 1126.7 2200 1205.3 2400 1219.8C2600 1234.3 2800 1184.7 2900 1159.8L3000 1135L3000 1501L2900 1501C2800 1501 2600 1501 2400 1501C2200 1501 2000 1501 1800 1501C1600 1501 1400 1501 1200 1501C1000 1501 800 1501 600 1501C400 1501 200 1501 100 1501L0 1501Z" fill="#4781b1"></path><path d="M0 1317L100 1295.5C200 1274 400 1231 600 1209.3C800 1187.7 1000 1187.3 1200 1222.7C1400 1258 1600 1329 1800 1353.3C2000 1377.7 2200 1355.3 2400 1324.8C2600 1294.3 2800 1255.7 2900 1236.3L3000 1217L3000 1501L2900 1501C2800 1501 2600 1501 2400 1501C2200 1501 2000 1501 1800 1501C1600 1501 1400 1501 1200 1501C1000 1501 800 1501 600 1501C400 1501 200 1501 100 1501L0 1501Z" fill="#091f41"></path></svg>